<svg width="1204" height="1204" viewBox="0 0 1204 1204" fill="none" xmlns="http://www.w3.org/2000/svg">
<path fill-rule="evenodd" clip-rule="evenodd" d="M382.558 38.0247C305.538 66.9564 235.892 112.398 173.623 174.35C57.8742 289.486 0 432.036 0 602C0 771.964 57.8742 915.062 173.623 1031.3C184.522 1042.04 195.648 1052.28 207 1062.02L207 434.767V414.767H227H382.558L382.558 38.0247ZM258.933 1102C357.955 1170 472.311 1204 602 1204C731.689 1204 845.726 1170 944.109 1102H692.657H511.343H402.558H258.933ZM997 1060.86C1007.8 1051.47 1018.38 1041.61 1028.75 1031.3C1145.58 915.062 1204 771.964 1204 602C1204 432.036 1145.58 289.486 1028.75 174.35C913.006 58.1166 770.755 0 602 0C540.731 0 482.884 7.66071 428.46 22.9821L986.274 314.912L997 320.525V332.632V1060.86ZM422.558 384.396C471.968 343.054 531.782 322.382 602 322.382C682.05 322.382 748.038 349.248 799.962 402.978C852.969 455.612 879.472 521.953 879.472 602C879.472 682.047 852.969 748.936 799.962 802.667C774.296 828.683 745.195 848.27 712.657 861.427V1062H957V344.738L422.558 65.0403L422.558 384.396ZM362.266 454.767H247L247 1062H382.558L382.558 779.871C343.872 730.385 324.528 671.094 324.528 602C324.528 546.281 337.107 497.204 362.266 454.767ZM422.558 820.87C443.6 838.116 466.528 851.691 491.343 861.593L491.343 1062H422.558L422.558 820.87ZM531.343 874.006C553.592 879.08 577.144 881.617 602 881.617C626.915 881.617 650.467 879.068 672.657 873.97V1062H531.343L531.343 874.006Z" fill="#F4F4F4"/>
</svg>
